<svg width="20" height="24" viewBox="0 0 20 24" fill="none" xmlns="http://www.w3.org/2000/svg">
<path d="M16.7553 12.6953C16.7553 14.9452 17.8369 16.5879 20 17.6235C19.5745 18.9805 18.8475 20.3732 17.8191 21.8017C16.7908 23.2302 15.7092 23.9622 14.5745 23.9979C14.078 23.9979 13.422 23.8372 12.6064 23.5158C11.7908 23.1944 11.0816 23.0337 10.4787 23.0337C9.87588 23.0337 9.15781 23.1944 8.32447 23.5158C7.49113 23.8372 6.87944 23.9979 6.48936 23.9979C5.70922 24.0337 4.88476 23.6051 4.01596 22.7123C3.14716 21.8196 2.45568 20.8911 1.94149 19.9269C1.4273 18.9627 1.02837 18.0877 0.744681 17.3021C0.248225 15.8022 0 14.3559 0 12.9632C0 10.7134 0.611696 8.96352 1.83511 7.71362C3.05852 6.46373 4.48581 5.82093 6.11702 5.78522C6.64894 5.78522 7.41134 5.96377 8.40426 6.32089C9.39717 6.678 10 6.85655 10.2128 6.85655C10.3546 6.85655 10.6117 6.79406 10.984 6.66907C11.3564 6.54408 11.7376 6.40124 12.1277 6.24054C12.5177 6.07983 12.9699 5.94592 13.484 5.83878C13.9982 5.73165 14.4681 5.69594 14.8936 5.73165C16.9149 5.91021 18.422 6.7137 19.4149 8.14216C17.6064 9.2135 16.7199 10.7312 16.7553 12.6953ZM13.7234 3.85681C12.5886 5.21385 11.3653 5.83878 10.0532 5.73165C9.91135 4.3032 10.3546 3.0176 11.383 1.87484C11.8085 1.37488 12.3582 0.94635 13.0319 0.589235C13.7057 0.232121 14.3617 0.0357112 15 0C15.1064 1.42846 14.6809 2.71405 13.7234 3.85681Z" fill="#190933"/>
</svg>
