<svg width="20" height="20" viewBox="0 0 20 20" fill="none" xmlns="http://www.w3.org/2000/svg">
<circle cx="10" cy="10" r="10" fill="white"/>
<path d="M10 2C8.89743 2 7.85898 2.20833 6.88462 2.625C5.91025 3.04167 5.0609 3.61218 4.33654 4.33654C3.61218 5.0609 3.04167 5.91025 2.625 6.88462C2.20833 7.85898 2 8.89743 2 10C2 11.1026 2.20833 12.141 2.625 13.1154C3.04167 14.0897 3.61218 14.9391 4.33654 15.6635C5.0609 16.3878 5.91025 16.9583 6.88462 17.375C7.85898 17.7917 8.89743 18 10 18C11.1026 18 12.141 17.7917 13.1154 17.375C14.0897 16.9583 14.9391 16.3878 15.6635 15.6635C16.3878 14.9391 16.9583 14.0897 17.375 13.1154C17.7917 12.141 18 11.1026 18 10C18 8.89743 17.7917 7.85898 17.375 6.88462C16.9583 5.91025 16.3878 5.0609 15.6635 4.33654C14.9391 3.61218 14.0897 3.04167 13.1154 2.625C12.141 2.20833 11.1026 2 10 2ZM14.4615 7.73077L8.63462 13.5577C8.55769 13.6346 8.46795 13.6731 8.36538 13.6731C8.26282 13.6731 8.17308 13.6346 8.09615 13.5577L7.98077 13.4423L4.76923 10.2115C4.69231 10.1346 4.65385 10.0449 4.65385 9.94231C4.65385 9.83974 4.69231 9.75 4.76923 9.67308L5.55769 8.88462C5.63462 8.80769 5.72436 8.76923 5.82692 8.76923C5.92949 8.76923 6.01923 8.80769 6.09615 8.88462L8.36538 11.1731L13.1346 6.40385C13.2115 6.32692 13.3013 6.28846 13.4038 6.28846C13.5064 6.28846 13.5962 6.32692 13.6731 6.40385L14.4615 7.19231C14.5385 7.26923 14.5769 7.35897 14.5769 7.46154C14.5769 7.5641 14.5385 7.65385 14.4615 7.73077Z" fill="#007370"/>
</svg>
