<svg width="24" height="24" viewBox="0 0 24 24" fill="none" xmlns="http://www.w3.org/2000/svg">
<path d="M24 12.276C24 11.4603 23.9325 10.6402 23.7886 9.83771H12.2418V14.4585H18.8541C18.5797 15.9488 17.6981 17.2672 16.4071 18.1049V21.1032H20.352C22.6685 19.0132 24 15.9268 24 12.276Z" fill="#4285F4"/>
<path d="M12.2418 24C15.5434 24 18.3278 22.9374 20.3565 21.1032L16.4116 18.1049C15.314 18.8369 13.8971 19.2513 12.2463 19.2513C9.05258 19.2513 6.34468 17.1393 5.37307 14.2998H1.30222V17.3906C3.38038 21.4427 7.61316 24 12.2418 24Z" fill="#34A853"/>
<path d="M5.36857 14.2998C4.85578 12.8095 4.85578 11.1957 5.36857 9.7054V6.61456H1.30222C-0.434074 10.0052 -0.434074 13.9999 1.30222 17.3906L5.36857 14.2998Z" fill="#FBBC04"/>
<path d="M12.2418 4.7495C13.9871 4.72305 15.6739 5.36679 16.9379 6.54845L20.4329 3.12251C18.2198 1.08547 15.2825 -0.0344648 12.2418 0.000808639C7.61316 0.000808639 3.38038 2.55814 1.30222 6.61459L5.36857 9.70542C6.33568 6.8615 9.04808 4.7495 12.2418 4.7495Z" fill="#EA4335"/>
</svg>
