<svg width="24" height="24" viewBox="0 0 24 24" fill="none" xmlns="http://www.w3.org/2000/svg">
<path d="M23.1428 11.1429H9.30684C8.84203 9.31655 6.98468 8.21285 5.15832 8.67766C3.94713 8.98593 3.00138 9.93169 2.69311 11.1429H0.857158C0.383755 11.1429 0 11.5266 0 12C0 12.4734 0.383755 12.8571 0.857158 12.8571H2.69316C3.15798 14.6834 5.01533 15.7871 6.84169 15.3223C8.05287 15.0141 8.99862 14.0683 9.30689 12.8571H23.1428C23.6162 12.8571 24 12.4734 24 12C24 11.5266 23.6162 11.1429 23.1428 11.1429ZM6 13.7143C5.05325 13.7143 4.28574 12.9468 4.28574 12C4.28574 11.0533 5.05325 10.2858 6 10.2858C6.94676 10.2858 7.71427 11.0533 7.71427 12C7.71427 12.9468 6.94676 13.7143 6 13.7143Z" fill="#007370"/>
<path d="M23.1428 2.57144H20.4497C19.9849 0.745127 18.1275 -0.358576 16.3012 0.106239C15.09 0.414508 14.1442 1.36026 13.836 2.57144H0.857158C0.383755 2.57144 0 2.95519 0 3.4286C0 3.902 0.383755 4.28576 0.857158 4.28576H13.836C14.3008 6.11207 16.1581 7.21577 17.9845 6.75096C19.1957 6.44269 20.1414 5.49694 20.4497 4.28576H23.1428C23.6162 4.28576 24 3.902 24 3.4286C24 2.95519 23.6162 2.57144 23.1428 2.57144ZM17.1429 5.14286C16.1961 5.14286 15.4286 4.37535 15.4286 3.4286C15.4286 2.48184 16.1961 1.71433 17.1429 1.71433C18.0896 1.71433 18.8571 2.48184 18.8571 3.4286C18.8571 4.37535 18.0896 5.14286 17.1429 5.14286Z" fill="#007370"/>
<path d="M23.1428 19.7143H18.7354C18.2706 17.888 16.4132 16.7843 14.5869 17.2491C13.3757 17.5574 12.4299 18.5031 12.1216 19.7143H0.857158C0.383755 19.7143 0 20.098 0 20.5714C0 21.0448 0.383755 21.4286 0.857158 21.4286H12.1217C12.5865 23.2549 14.4439 24.3586 16.2702 23.8938C17.4814 23.5855 18.4272 22.6397 18.7354 21.4286H23.1428C23.6162 21.4286 24 21.0448 24 20.5714C24 20.098 23.6162 19.7143 23.1428 19.7143ZM15.4285 22.2857C14.4818 22.2857 13.7143 21.5182 13.7143 20.5715C13.7143 19.6247 14.4818 18.8572 15.4285 18.8572C16.3753 18.8572 17.1428 19.6247 17.1428 20.5715C17.1428 21.5182 16.3753 22.2857 15.4285 22.2857Z" fill="#007370"/>
</svg>
