<svg width="24" height="24" viewBox="0 0 24 24" fill="none" xmlns="http://www.w3.org/2000/svg">
<path d="M14.9389 19.5428C14.5275 19.5428 14.1308 19.3665 13.8565 19.0677C13.6018 18.7836 13.4793 18.4065 13.5185 18.0294L13.7977 11.7943C13.254 11.4857 12.8769 10.9616 12.7593 10.3445C12.632 9.61467 12.6761 8.85059 12.8916 8.14039L13.1414 7.31263C13.3324 6.75426 13.7732 6.31345 14.3267 6.12243C14.5226 6.05385 14.7283 6.01957 14.9389 6.01957C15.752 6.01957 16.472 6.53875 16.7365 7.30773L16.9912 8.14039C17.2067 8.85059 17.2508 9.60977 17.1234 10.3396C17.0059 10.9567 16.6287 11.4808 16.0851 11.7894L16.3642 18.0539C16.3985 18.4163 16.2761 18.7885 16.0263 19.0628C15.9969 19.0971 15.9675 19.1265 15.9332 19.1559C15.6589 19.4057 15.3063 19.5428 14.9389 19.5428ZM14.5863 18.4114C14.6793 18.5045 14.8067 18.5583 14.9389 18.5583C15.0712 18.5583 15.1985 18.5045 15.2965 18.4114C15.3651 18.3379 15.3944 18.24 15.3846 18.1371V18.1322L15.0859 11.5102C15.0761 11.2996 15.2034 11.1037 15.4042 11.0302C15.7912 10.8979 16.0802 10.5649 16.1536 10.1681C16.2565 9.59018 16.2173 8.98773 16.0459 8.42447L15.7961 7.59671C15.703 7.34692 15.5071 7.151 15.2524 7.05794C15.1495 7.01875 15.0418 6.99916 14.934 6.99916C14.552 6.99916 14.2091 7.23916 14.072 7.59671L13.8222 8.42447C13.6508 8.98773 13.6165 9.59018 13.7193 10.1681C13.7977 10.5649 14.0818 10.8979 14.4687 11.0302C14.6695 11.1037 14.7969 11.2996 14.7871 11.5102L14.4932 18.1028V18.1077C14.4785 18.2204 14.5128 18.3281 14.5863 18.4114Z" fill="#190933"/>
<path d="M16.8934 8.16975L16.6436 7.342C16.3253 6.40159 15.3016 5.8971 14.3612 6.21547C13.8322 6.39669 13.4159 6.81302 13.2346 7.342L12.9848 8.16975C12.7742 8.87016 12.7302 9.60485 12.8575 10.3249C12.975 10.9322 13.3571 11.4514 13.9008 11.7355L13.6167 18.0342C13.5775 18.3869 13.6951 18.7346 13.9302 18.9991C14.4395 19.5575 15.3065 19.5967 15.8649 19.0873C15.8942 19.0579 15.9236 19.0285 15.953 18.9991C16.1832 18.7444 16.3008 18.4016 16.2665 18.0587L15.9824 11.7355C16.5261 11.4465 16.9081 10.9273 17.0257 10.3249C17.1481 9.60485 17.104 8.86526 16.8934 8.16975ZM16.2518 10.1877C16.1685 10.6236 15.8551 10.9812 15.4387 11.1232C15.282 11.182 15.1791 11.3387 15.184 11.5053L15.4828 18.1175C15.4975 18.2449 15.4534 18.3771 15.3653 18.4702C15.1302 18.7053 14.7481 18.7053 14.513 18.4702C14.4199 18.3673 14.3759 18.2253 14.3955 18.0881L14.6893 11.5004C14.6991 11.3289 14.5963 11.1771 14.4346 11.1183C14.0183 10.9714 13.7048 10.6187 13.6216 10.1828C13.5187 9.58526 13.553 8.97302 13.7293 8.39506L13.9791 7.5673C14.1751 7.04322 14.7579 6.77383 15.2869 6.96485C15.5661 7.06771 15.7865 7.28812 15.8893 7.5673L16.1391 8.39506C16.3204 8.97791 16.3546 9.59016 16.2518 10.1877Z" fill="#190933"/>
<path d="M9.06123 19.5429C9.03674 19.5429 9.01225 19.5429 8.99266 19.5429C8.61551 19.5233 8.26286 19.3616 8.00817 19.0776C7.75347 18.7984 7.62123 18.431 7.64082 18.0539L7.97388 11.4122L6.95021 10.3886C6.85715 10.2955 6.80817 10.1731 6.80817 10.0408V6.51429C6.80817 6.2449 7.02857 6.02449 7.29796 6.02449C7.56735 6.02449 7.78776 6.2449 7.78776 6.51429V9.84L8.82123 10.8735C8.91919 10.9714 8.97306 11.1086 8.96327 11.2457L8.62041 18.1029C8.61551 18.2253 8.65959 18.3429 8.74286 18.431C8.83102 18.5192 8.94368 18.5633 9.06613 18.5633C9.18857 18.5633 9.30123 18.5143 9.38939 18.431C9.47266 18.3429 9.51674 18.2253 9.50694 18.1078L9.16409 11.2506C9.15919 11.1135 9.20817 10.9763 9.30613 10.8784L10.3396 9.8449V6.51429C10.3396 6.2449 10.56 6.02449 10.8294 6.02449C11.0988 6.02449 11.3192 6.2449 11.3192 6.51429V10.0408C11.3192 10.1731 11.2702 10.2955 11.1771 10.3886L10.1535 11.4122L10.4865 18.0539C10.4865 18.098 10.4865 18.1469 10.4865 18.191C10.4425 18.9453 9.82041 19.5429 9.06123 19.5429Z" fill="#190933"/>
<path d="M10.8245 6.12245C10.609 6.12245 10.4327 6.29878 10.4327 6.51429V9.87918L9.3698 10.942C9.29143 11.0204 9.24735 11.1282 9.25715 11.2408L9.6 18.098C9.6098 18.2449 9.55592 18.3918 9.45306 18.4996C9.23755 18.7151 8.8898 18.72 8.67429 18.5045C8.67429 18.5045 8.67429 18.5045 8.66939 18.4996C8.56653 18.3918 8.51266 18.2498 8.52245 18.098L8.86531 11.2408C8.87021 11.1282 8.83102 11.0204 8.75266 10.942L7.6898 9.87918V6.51429C7.6898 6.29878 7.51347 6.12245 7.29796 6.12245C7.08245 6.12245 6.90613 6.29878 6.90613 6.51429V10.0408C6.90613 10.1437 6.94531 10.2465 7.01878 10.32L8.07184 11.3731L7.73878 18.0539C7.70449 18.7837 8.26776 19.4057 8.99755 19.44C9.72735 19.4743 10.3494 18.911 10.3837 18.1812C10.3837 18.1371 10.3837 18.0931 10.3837 18.0539L10.0506 11.3682L11.1037 10.3151C11.1771 10.2416 11.2163 10.1437 11.2163 10.0359V6.50939C11.2163 6.29878 11.04 6.12245 10.8245 6.12245Z" fill="#190933"/>
<path d="M12 24C8.79673 24 5.77959 22.751 3.51673 20.4833C1.24898 18.2204 0 15.2033 0 12C0 8.79673 1.24898 5.77959 3.51673 3.51673C5.77959 1.24898 8.79673 0 12 0C15.2033 0.00489796 18.2155 1.25388 20.4833 3.51673C22.751 5.78449 24 8.79184 24 12C24 15.2033 22.751 18.2204 20.4833 20.4833C18.2155 22.7461 15.2033 24 12 24ZM12 1.27347C9.13469 1.27347 6.44082 2.3902 4.41306 4.41306C2.38531 6.43592 1.27347 9.13469 1.27347 12C1.27347 14.8653 2.3902 17.5592 4.41306 19.5869C6.43592 21.6147 9.13469 22.7265 12 22.7265C14.8653 22.7216 17.5543 21.6049 19.582 19.582C21.6049 17.5592 22.7265 14.8653 22.7265 12C22.7265 9.13469 21.6098 6.44082 19.5869 4.41306C17.5641 2.38531 14.8653 1.27347 12 1.27347Z" fill="#190933"/>
<path d="M12.0002 19.9347C11.6916 19.9347 11.3781 19.9151 11.0695 19.8808C10.9373 19.8661 10.8247 19.8025 10.7414 19.6996C10.6581 19.5967 10.6238 19.4694 10.6385 19.3371C10.6679 19.0922 10.8785 18.9061 11.1234 18.9061C11.143 18.9061 11.1626 18.9061 11.1822 18.911C11.4516 18.9404 11.7308 18.96 12.0002 18.96C12.2696 18.96 12.5487 18.9453 12.8181 18.911C12.823 18.911 12.8279 18.911 12.8328 18.911C12.8475 18.911 12.8671 18.911 12.8818 18.911C13.1365 18.911 13.3422 19.102 13.3667 19.3518C13.3814 19.4841 13.3422 19.6114 13.2589 19.7094C13.1757 19.8122 13.0581 19.871 12.9259 19.8857C12.6222 19.9151 12.3087 19.9347 12.0002 19.9347Z" fill="#190933"/>
<path d="M13.2736 19.3567C13.254 19.1412 13.063 18.9845 12.8475 19.0041C12.8426 19.0041 12.8377 19.0041 12.8328 19.0041C12.2793 19.0677 11.7259 19.0677 11.1724 19.0041C10.9569 18.9796 10.761 19.1314 10.7365 19.3469C10.712 19.5624 10.8638 19.7583 11.0793 19.7828C11.6916 19.8563 12.3087 19.8563 12.921 19.7828C13.1365 19.7632 13.2932 19.5722 13.2736 19.3567Z" fill="#190933"/>
<path d="M17.2556 17.7649C17.1234 17.7649 17.0009 17.7159 16.9079 17.6229C16.7169 17.4319 16.7169 17.1184 16.9079 16.9323C18.1471 15.698 18.872 14.0572 18.9454 12.3086C19.0189 10.56 18.4409 8.86044 17.3144 7.52329C17.1381 7.31758 17.1675 7.00901 17.3732 6.83268L17.3781 6.82778C17.4663 6.75431 17.5789 6.71513 17.6916 6.71513C17.8385 6.71513 17.9756 6.7788 18.0687 6.89146C19.352 8.41962 20.0132 10.3543 19.925 12.3478C19.8369 14.3413 19.0091 16.2123 17.5985 17.6229C17.5103 17.711 17.3879 17.7649 17.2556 17.7649Z" fill="#190933"/>
<path d="M17.9952 6.95025C17.8581 6.78372 17.6083 6.76412 17.4417 6.90127C17.2752 7.03841 17.2556 7.28821 17.3928 7.45474C19.7536 10.2613 19.5723 14.4049 16.9764 16.996C16.8246 17.1478 16.8246 17.3976 16.9764 17.5494C17.1283 17.7013 17.3781 17.7013 17.5299 17.5494C20.4197 14.6743 20.6205 10.0653 17.9952 6.95025Z" fill="#190933"/>
<path d="M9.37476 5.52C9.17395 5.52 8.98783 5.39265 8.91436 5.20163C8.87027 5.07918 8.87027 4.94694 8.92905 4.82939C8.98293 4.71184 9.08089 4.61877 9.20334 4.57469C10.1046 4.23673 11.045 4.06531 12.0099 4.06531C12.6368 4.06531 13.2637 4.13877 13.876 4.28571C14.0033 4.3151 14.1111 4.39347 14.1797 4.50612C14.2482 4.61878 14.2678 4.75102 14.2384 4.87837C14.1846 5.09877 13.9886 5.25551 13.7633 5.25551C13.7242 5.25551 13.685 5.25061 13.6458 5.24082C13.1119 5.11347 12.5584 5.0449 12.0099 5.0449C11.1674 5.0449 10.3397 5.19673 9.55109 5.49061C9.49232 5.5102 9.43354 5.52 9.37476 5.52Z" fill="#190933"/>
<path d="M13.8468 4.38369C12.3137 4.01634 10.7072 4.1143 9.23288 4.66777C9.03207 4.74614 8.92921 4.97144 9.00268 5.17226C9.06145 5.3241 9.20839 5.42696 9.37003 5.42696C9.41901 5.42696 9.46309 5.41716 9.50717 5.40247C10.8345 4.90777 12.2794 4.81471 13.6606 5.14777C13.8713 5.19675 14.0819 5.0694 14.1357 4.85879C14.1896 4.64328 14.0574 4.43267 13.8468 4.38369Z" fill="#190933"/>
<path d="M6.72487 17.7453C6.59262 17.7453 6.47017 17.6964 6.37711 17.6033C5.04487 16.2662 4.2318 14.498 4.08487 12.6172C3.93793 10.7364 4.4718 8.86044 5.57874 7.33717L5.58854 7.32738C5.6816 7.20493 5.82364 7.13146 5.98038 7.13146C6.08813 7.13146 6.19099 7.16574 6.27425 7.22942C6.37711 7.30778 6.44568 7.42044 6.46527 7.55268C6.48487 7.68003 6.45058 7.81227 6.37221 7.91513C5.50038 9.11023 5.03997 10.5257 5.04487 12.0049C5.03997 13.8319 5.77956 15.6196 7.07262 16.9127C7.26364 17.1037 7.26364 17.4172 7.07262 17.6082C6.97956 17.6915 6.85711 17.7453 6.72487 17.7453Z" fill="#190933"/>
<path d="M7.00397 16.9764C5.68152 15.6588 4.94193 13.8662 4.94683 12C4.94193 10.5111 5.41703 9.05636 6.29376 7.85146C6.42601 7.68003 6.38682 7.43513 6.2154 7.30289C6.04397 7.17064 5.79907 7.20983 5.66682 7.38125C5.66682 7.38615 5.66193 7.38615 5.66193 7.39105C3.39417 10.5062 3.73213 14.8066 6.4505 17.5347C6.60233 17.6866 6.85213 17.6866 7.00397 17.5347C7.1558 17.378 7.1558 17.1282 7.00397 16.9764Z" fill="#190933"/>
<path d="M8.47347 6.12245C8.25796 6.12245 8.08163 6.29877 8.08163 6.51428V9.64898C8.08163 9.86449 8.25796 10.0408 8.47347 10.0408C8.68898 10.0408 8.86531 9.86449 8.86531 9.64898V6.51428C8.86531 6.29877 8.68898 6.12245 8.47347 6.12245Z" fill="#190933"/>
<path d="M9.64898 6.12245C9.43347 6.12245 9.25714 6.29877 9.25714 6.51428V9.64898C9.25714 9.86449 9.43347 10.0408 9.64898 10.0408C9.86449 10.0408 10.0408 9.86449 10.0408 9.64898V6.51428C10.0408 6.29877 9.86449 6.12245 9.64898 6.12245Z" fill="#190933"/>
</svg>
