<svg width="64" height="64" viewBox="0 0 64 64" fill="none" xmlns="http://www.w3.org/2000/svg">
<circle cx="32" cy="32" r="32" fill="#C4C4C4"/>
<path d="M48.25 32H15.75C14.7554 32 13.8016 32.429 13.0983 33.1925C12.3951 33.956 12 34.9916 12 36.0714C12 37.1512 12.3951 38.1868 13.0983 38.9504C13.8016 39.7139 14.7554 40.1429 15.75 40.1429H48.25C49.2446 40.1429 50.1984 39.7139 50.9017 38.9504C51.6049 38.1868 52 37.1512 52 36.0714C52 34.9916 51.6049 33.956 50.9017 33.1925C50.1984 32.429 49.2446 32 48.25 32V32ZM49.5 42.8571H14.5C14.1685 42.8571 13.8505 43.0001 13.6161 43.2546C13.3817 43.5092 13.25 43.8543 13.25 44.2143V45.5714C13.25 47.0112 13.7768 48.392 14.7145 49.41C15.6521 50.4281 16.9239 51 18.25 51H45.75C47.0761 51 48.3479 50.4281 49.2855 49.41C50.2232 48.392 50.75 47.0112 50.75 45.5714V44.2143C50.75 43.8543 50.6183 43.5092 50.3839 43.2546C50.1495 43.0001 49.8315 42.8571 49.5 42.8571ZM16.5812 29.2857H47.4187C50.1195 29.2857 51.6859 25.5621 50.1391 22.8495C47 17.3429 40.0898 13.0085 32 13C23.9109 13.0085 17 17.3429 13.8609 22.8486C12.3125 25.5612 13.8805 29.2857 16.5812 29.2857ZM42 19.7857C42.2472 19.7857 42.4889 19.8653 42.6945 20.0144C42.9 20.1636 43.0602 20.3755 43.1548 20.6235C43.2495 20.8715 43.2742 21.1444 43.226 21.4076C43.1778 21.6709 43.0587 21.9127 42.8839 22.1025C42.7091 22.2923 42.4863 22.4216 42.2439 22.4739C42.0014 22.5263 41.7501 22.4994 41.5216 22.3967C41.2932 22.294 41.098 22.12 40.9607 21.8968C40.8233 21.6737 40.75 21.4113 40.75 21.1429C40.75 20.7829 40.8817 20.4377 41.1161 20.1832C41.3505 19.9287 41.6685 19.7857 42 19.7857V19.7857ZM32 17.0714C32.2472 17.0714 32.4889 17.151 32.6945 17.3001C32.9 17.4493 33.0602 17.6612 33.1548 17.9092C33.2495 18.1572 33.2742 18.4301 33.226 18.6933C33.1778 18.9566 33.0587 19.1984 32.8839 19.3882C32.7091 19.578 32.4863 19.7073 32.2439 19.7596C32.0014 19.812 31.7501 19.7851 31.5216 19.6824C31.2932 19.5797 31.098 19.4057 30.9607 19.1826C30.8233 18.9594 30.75 18.697 30.75 18.4286C30.75 18.0686 30.8817 17.7234 31.1161 17.4689C31.3505 17.2144 31.6685 17.0714 32 17.0714V17.0714ZM22 19.7857C22.2472 19.7857 22.4889 19.8653 22.6945 20.0144C22.9 20.1636 23.0602 20.3755 23.1548 20.6235C23.2495 20.8715 23.2742 21.1444 23.226 21.4076C23.1778 21.6709 23.0587 21.9127 22.8839 22.1025C22.7091 22.2923 22.4863 22.4216 22.2439 22.4739C22.0014 22.5263 21.7501 22.4994 21.5216 22.3967C21.2932 22.294 21.098 22.12 20.9607 21.8968C20.8233 21.6737 20.75 21.4113 20.75 21.1429C20.75 20.7829 20.8817 20.4377 21.1161 20.1832C21.3505 19.9287 21.6685 19.7857 22 19.7857V19.7857Z" fill="#4B9460"/>
</svg>
