<svg width="24" height="24" viewBox="0 0 24 24" fill="none" xmlns="http://www.w3.org/2000/svg">
<path d="M20.4854 3.51464C18.1422 1.17154 15.3138 0 12 0C8.68618 0 5.85775 1.17154 3.51464 3.51464C1.17154 5.85775 0 8.68618 0 12C0 15.3138 1.17154 18.1422 3.51464 20.4854C5.85775 22.8285 8.68618 24 12 24C15.3138 24 18.1422 22.8285 20.4854 20.4854C22.8285 18.1422 24 15.3138 24 12C24 8.68618 22.8285 5.85775 20.4854 3.51464ZM22.3933 12C22.3933 14.8787 21.3808 17.3305 19.3556 19.3556C17.3305 21.3808 14.8787 22.3933 12 22.3933C9.12132 22.3933 6.66947 21.3808 4.64435 19.3556C2.61924 17.3305 1.60669 14.8787 1.60669 12C1.60669 9.12132 2.61924 6.66947 4.64435 4.64435C6.66947 2.61924 9.12132 1.60669 12 1.60669C14.8787 1.60669 17.3305 2.61924 19.3556 4.64435C21.3808 6.66947 22.3933 9.12132 22.3933 12ZM16.7699 11.1464H12.7531V5.52301C12.7531 5.2887 12.6778 5.09623 12.5272 4.94561C12.3766 4.79498 12.1841 4.71967 11.9498 4.71967C11.7155 4.71967 11.523 4.79498 11.3724 4.94561C11.2218 5.09623 11.1464 5.2887 11.1464 5.52301V11.9498C11.1464 12.1841 11.2218 12.3766 11.3724 12.5272C11.523 12.6778 11.7155 12.7531 11.9498 12.7531H16.7699C17.0042 12.7531 17.1967 12.6778 17.3473 12.5272C17.4979 12.3766 17.5732 12.1841 17.5732 11.9498C17.5732 11.7155 17.4979 11.523 17.3473 11.3724C17.1967 11.2218 17.0042 11.1464 16.7699 11.1464Z" fill="black"/>
</svg>
