<svg width="25" height="24" viewBox="0 0 25 24" fill="none" xmlns="http://www.w3.org/2000/svg">
<path d="M24.5211 10.6776C24.9772 10.2204 25.1075 9.68163 24.912 9.06122C24.7166 8.44081 24.2931 8.08163 23.6415 7.98367L16.898 7.00408L13.9171 0.881633C13.6239 0.293874 13.1516 0 12.5 0C11.8484 0 11.3761 0.293874 11.0829 0.881633L8.10203 7.00408L1.35848 7.98367C0.70693 8.08163 0.283426 8.44081 0.0879602 9.06122C-0.107506 9.68163 0.0228031 10.2204 0.478891 10.6776L5.36552 15.4286L4.19273 22.1878C4.095 22.8082 4.30675 23.3143 4.82799 23.7061C5.08861 23.902 5.3981 24 5.75645 24C6.01707 24 6.2614 23.9347 6.48945 23.8041L12.5 20.6204L18.5106 23.8041C18.7386 23.9347 18.9829 24 19.2435 24C19.6019 24 19.9114 23.902 20.172 23.7061C20.6933 23.3143 20.905 22.8082 20.8073 22.1878L19.6345 15.4286L24.5211 10.6776ZM17.973 14.8898L19.2435 22.4327L12.5 18.8571L5.75645 22.4327L7.02697 14.8898L1.55395 9.55102L9.12823 8.47347L12.5 1.56735L15.8718 8.47347L23.4461 9.55102L17.973 14.8898Z" fill="#190933"/>
</svg>
