<svg width="12" height="12" viewBox="0 0 12 12" fill="none" xmlns="http://www.w3.org/2000/svg">
<path d="M0.313897 10.5591C-0.095913 10.9348 -0.104451 11.319 0.288285 11.7117C0.681021 12.1045 1.06521 12.0959 1.44087 11.6861L6 7.1782L10.5591 11.6861C10.9348 12.0959 11.319 12.1045 11.7117 11.7117C12.1045 11.319 12.0959 10.9348 11.6861 10.5591L7.1782 6L11.6861 1.44087C12.0959 1.06521 12.1045 0.681021 11.7117 0.288285C11.319 -0.104451 10.9348 -0.095913 10.5591 0.313897L6 4.8218L1.44087 0.313897C1.06521 -0.095913 0.681021 -0.104451 0.288285 0.288285C-0.104451 0.681021 -0.095913 1.06521 0.313897 1.44087L4.8218 6L0.313897 10.5591Z" fill="#005957"/>
</svg>
