<svg width="24" height="24" viewBox="0 0 24 24" fill="none" xmlns="http://www.w3.org/2000/svg">
<path d="M3.48387 3.53226C5.83872 1.17741 8.6774 0 12 0C15.3226 0 18.1532 1.16934 20.4919 3.50806C22.8307 5.84679 24 8.6774 24 12C24 15.3226 22.8307 18.1532 20.4919 20.4919C18.1532 22.8307 15.3226 24 12 24C8.6774 24 5.84679 22.8307 3.50806 20.4919C1.16934 18.1532 0 15.3226 0 12C0 8.6774 1.16128 5.85485 3.48387 3.53226ZM5.12903 18.871C7.03227 20.7419 9.32257 21.6774 12 21.6774C14.6774 21.6774 16.9597 20.7339 18.8468 18.8468C20.7339 16.9597 21.6774 14.6774 21.6774 12C21.6774 9.32257 20.7339 7.04033 18.8468 5.15323C16.9597 3.26612 14.6774 2.32258 12 2.32258C9.32257 2.32258 7.04033 3.26612 5.15323 5.15323C3.26612 7.04033 2.32258 9.32257 2.32258 12C2.32258 14.6774 3.25806 16.9677 5.12903 18.871ZM16.8387 14.3226C17.1613 14.2903 17.4435 14.379 17.6855 14.5887C17.9274 14.7984 18.0645 15.0645 18.0968 15.3871C18.129 15.7097 18.0484 15.9839 17.8548 16.2097C16.3387 18.0484 14.3871 18.9677 12 18.9677C9.61289 18.9677 7.6613 18.0484 6.14516 16.2097C5.95161 15.9839 5.87097 15.7097 5.90323 15.3871C5.93548 15.0645 6.07258 14.7984 6.31452 14.5887C6.55645 14.379 6.83871 14.2903 7.16129 14.3226C7.48387 14.3548 7.74193 14.5 7.93548 14.7581C9 16.0161 10.3548 16.6452 12 16.6452C13.6452 16.6452 15 16.0161 16.0645 14.7581C16.2581 14.5 16.5161 14.3548 16.8387 14.3226ZM9.19355 10.7903C8.90322 11.0806 8.54839 11.2258 8.12903 11.2258C7.70968 11.2258 7.34678 11.0726 7.04032 10.7661C6.73387 10.4597 6.58065 10.0968 6.58065 9.67742C6.58065 9.25806 6.73387 8.89516 7.04032 8.58871C7.34678 8.28226 7.70968 8.12903 8.12903 8.12903C8.54839 8.12903 8.91129 8.28226 9.21774 8.58871C9.5242 8.89516 9.67742 9.25806 9.67742 9.67742C9.67742 10.0968 9.51613 10.4677 9.19355 10.7903ZM15.871 8.32258C16.5161 8.32258 17.1371 8.51613 17.7339 8.90323C18.3306 9.29032 18.6774 9.77419 18.7742 10.3548C18.8065 10.6129 18.7016 10.8064 18.4597 10.9355C18.2177 11.0645 18 11.0484 17.8065 10.8871L17.3226 10.4516C16.9677 10.1613 16.4839 10.0161 15.871 10.0161C15.2581 10.0161 14.7581 10.1613 14.371 10.4516L13.9355 10.8871C13.7419 11.0484 13.5242 11.0645 13.2823 10.9355C13.0403 10.8064 12.9355 10.6129 12.9677 10.3548C13.0323 9.96774 13.2177 9.6129 13.5242 9.29032C13.8306 8.96774 14.1935 8.72581 14.6129 8.56452C15.0323 8.40322 15.4516 8.32258 15.871 8.32258Z" fill="#190933"/>
</svg>
