<svg width="18" height="16" viewBox="0 0 18 16" fill="none" xmlns="http://www.w3.org/2000/svg">
<path d="M9 16L7.69014 14.8542C6.19718 13.5448 5.11268 12.5763 4.43662 11.9488C3.76056 11.3214 3.00705 10.5439 2.17606 9.61637C1.34507 8.68883 0.77465 7.84996 0.464789 7.09974C0.154928 6.34953 0 5.57886 0 4.78772C0 3.45097 0.471826 2.31885 1.41549 1.3913C2.35916 0.463764 3.5352 0 4.94366 0C6.57747 0 7.92957 0.613805 9 1.84143C10.0704 0.613805 11.4225 0 13.0563 0C14.4648 0 15.6408 0.463764 16.5845 1.3913C17.5282 2.31885 18 3.45097 18 4.78772C18 5.85167 17.6338 6.95652 16.9014 8.1023C16.169 9.24809 15.3732 10.2438 14.5141 11.0895C13.6549 11.9352 12.2535 13.2037 10.3099 14.8951L9 16Z" fill="#FF5959"/>
</svg>
