<svg width="18" height="16" viewBox="0 0 18 16" fill="none" xmlns="http://www.w3.org/2000/svg">
<path d="M14.1633 10.7332C13.3162 11.567 11.9256 12.8263 9.98452 14.5154L9.00592 15.3409L8.01984 14.4783C8.01972 14.4782 8.0196 14.4781 8.01948 14.478C6.52717 13.1691 5.44727 12.2047 4.77675 11.5824C4.11506 10.9682 3.37249 10.2025 2.54846 9.28273C1.73727 8.37729 1.20685 7.58661 0.926922 6.90887C0.641398 6.21758 0.5 5.51165 0.5 4.78772C0.5 3.58353 0.919057 2.58035 1.76599 1.74789C2.60969 0.918609 3.65698 0.5 4.94366 0.5C6.4335 0.5 7.64801 1.05169 8.62314 2.17003L9 2.60223L9.37686 2.17003C10.352 1.05169 11.5665 0.5 13.0563 0.5C14.343 0.5 15.3903 0.918609 16.234 1.74789C17.0809 2.58035 17.5 3.58353 17.5 4.78772C17.5 5.73297 17.1753 6.74549 16.4801 7.83301C15.7654 8.95118 14.9926 9.91686 14.1633 10.7332Z" stroke="white"/>
</svg>
