<svg width="142" height="142" viewBox="0 0 142 142" fill="none" xmlns="http://www.w3.org/2000/svg">
<path d="M25.2654 91.4616C11.3342 91.4616 0.000244141 102.796 0.000244141 116.727C0.000244141 130.662 11.3342 142 25.2654 142C39.2011 142 50.5387 130.662 50.5387 116.727C50.5387 102.796 39.2011 91.4616 25.2654 91.4616ZM25.2654 136.453C14.3927 136.453 5.54684 127.604 5.54684 116.727C5.54684 105.854 14.3924 97.0082 25.2654 97.0082C36.1426 97.0082 44.9918 105.854 44.9918 116.727C44.9918 127.604 36.1426 136.453 25.2654 136.453Z" fill="#8F8FB2"/>
<path d="M35.4972 106.503C34.4139 105.42 32.6583 105.42 31.5747 106.503L25.2693 112.808L18.9639 106.503C17.8806 105.42 16.125 105.42 15.0414 106.503C13.9584 107.586 13.9584 109.342 15.0414 110.426L21.3468 116.731L15.0414 123.036C13.9584 124.119 13.9584 125.876 15.0414 126.959C15.5831 127.5 16.2928 127.771 17.0025 127.771C17.7125 127.771 18.422 127.5 18.9636 126.959L25.269 120.653L31.5744 126.959C32.1161 127.5 32.8258 127.771 33.5355 127.771C34.2453 127.771 34.955 127.5 35.4966 126.959C36.5797 125.876 36.5797 124.12 35.4966 123.036L29.1912 116.731L35.4966 110.426C36.5802 109.342 36.5802 107.586 35.4972 106.503Z" fill="#8F8FB2"/>
<path d="M104.724 96.6906C110.713 89.7476 113.657 81.1724 113.024 72.453C112.362 63.3301 107.836 54.8542 100.282 48.5868C99.22 47.7051 97.6702 47.7395 96.6482 48.6672C96.3414 48.9454 96.0405 49.2271 95.7454 49.5125C93.8012 43.0806 89.8568 37.2126 84.2997 32.604C83.2375 31.7229 81.688 31.7573 80.6657 32.6844C80.3589 32.9626 80.058 33.2447 79.7626 33.53C77.8185 27.0979 73.8741 21.2298 68.3172 16.6215C67.255 15.7404 65.7057 15.7748 64.6832 16.7022C64.3764 16.9807 64.0752 17.2624 63.7801 17.5478C61.8346 11.1137 57.8871 5.24513 52.325 0.637901C51.2628 -0.242666 49.7141 -0.207998 48.6924 0.719717C44.5741 4.45526 41.5033 8.83563 39.5439 13.5313C32.0076 6.72033 21.7673 3.31371 10.7764 4.09555C9.39969 4.19345 8.30446 5.28868 8.20656 6.66541C7.42472 17.6613 10.8327 27.9002 17.6457 35.4362C12.9472 37.3965 8.56544 40.4692 4.83017 44.5902C3.90329 45.6128 3.86918 47.1612 4.7503 48.2234C9.36336 53.7856 15.2297 57.7305 21.6558 59.6716C21.3712 59.9662 21.0903 60.2665 20.8127 60.5727C19.8858 61.5953 19.8517 63.1437 20.7328 64.2059C25.3456 69.768 31.2125 73.7133 37.6386 75.6544C37.3543 75.9487 37.0733 76.2487 36.796 76.5544C35.8683 77.5769 35.8339 79.1256 36.7153 80.1884C41.3281 85.7505 47.195 89.6957 53.6213 91.6369C53.3368 91.9311 53.0558 92.2312 52.7785 92.5371C51.8513 93.5597 51.8166 95.1081 52.6978 96.1706C58.9588 103.723 67.43 108.249 76.5504 108.913C77.3312 108.971 78.1105 108.999 78.8882 108.999C86.7972 108.999 94.4779 106.069 100.803 100.614L111.157 110.968C111.699 111.51 112.408 111.781 113.118 111.781C113.828 111.781 114.538 111.51 115.079 110.968C116.162 109.885 116.162 108.129 115.079 107.046L104.724 96.6906ZM82.6134 38.5333C87.2978 43.0565 90.3167 48.7024 91.2569 54.7255C86.4963 61.4225 84.356 69.2838 85.1115 77.0777L76.8095 68.7757C72.3326 58.5717 74.6065 46.9881 82.6134 38.5333ZM66.631 22.5506C71.315 27.0738 74.3339 32.7196 75.2741 38.743C70.5135 45.4403 68.3732 53.301 69.129 61.095L60.8267 52.7927C56.3451 42.5936 58.6196 31.0095 66.631 22.5506ZM50.6415 6.56723C55.3295 11.089 58.3509 16.7355 59.2916 22.7599C54.5288 29.4578 52.3874 37.3177 53.1426 45.1091L44.8439 36.8105C40.3607 26.6078 42.6319 15.0237 50.6415 6.56723ZM13.6444 9.53315C13.7132 9.53259 13.7817 9.53259 13.8505 9.53259C23.2156 9.53259 31.7281 13.0762 37.689 19.4842C36.7006 24.2082 36.7757 29.1014 37.9814 33.8717C33.2122 32.6683 28.3212 32.5937 23.6 33.5811C17.142 27.576 13.592 18.9814 13.6444 9.53315ZM10.6788 46.5366C19.1292 38.5286 30.7136 36.2547 40.9223 40.7332L49.2232 49.0338C41.4273 48.2775 33.5644 50.4183 26.8682 55.1806C20.8515 54.2465 15.2067 51.2276 10.6788 46.5366ZM26.6613 62.5191C35.1122 54.5111 46.696 52.2372 56.9048 56.7157L65.2071 65.018C57.4132 64.2625 49.5513 66.4033 42.8537 71.1639C36.8362 70.2301 31.1895 67.2104 26.6613 62.5191ZM42.6446 78.5022C51.0994 70.4952 62.6838 68.2213 72.8873 72.6979L81.1896 81.0002C73.3951 80.2444 65.5335 82.385 58.8362 87.1461C52.8187 86.2126 47.1728 83.1934 42.6446 78.5022ZM76.954 103.381C70.1224 102.883 63.6964 99.747 58.6263 94.4858C67.0811 86.4772 78.6644 84.2035 88.8703 88.681L96.8678 96.6784C91.0982 101.524 84.0665 103.899 76.954 103.381ZM100.789 92.7557L92.7917 84.7579C88.3151 74.5539 90.5899 62.9701 98.5962 54.5153C103.86 59.5906 106.995 66.0203 107.491 72.8546C108.008 79.9646 105.632 86.9897 100.789 92.7557Z" fill="#8F8FB2"/>
<path d="M141.187 133.153L132.673 124.647C131.589 123.564 129.833 123.565 128.75 124.649C127.668 125.732 127.669 127.488 128.752 128.571L137.266 137.077C137.808 137.618 138.517 137.889 139.226 137.889C139.937 137.889 140.647 137.617 141.188 137.075C142.271 135.992 142.27 134.235 141.187 133.153Z" fill="#8F8FB2"/>
<path d="M119.938 115.843C118.855 116.926 118.855 118.682 119.938 119.765L119.946 119.773C120.487 120.314 121.194 120.584 121.902 120.584C122.612 120.584 123.322 120.312 123.864 119.769C124.947 118.686 124.944 116.926 123.861 115.843C122.777 114.76 121.022 114.76 119.938 115.843Z" fill="#8F8FB2"/>
</svg>
