<svg width="142" height="142" viewBox="0 0 142 142" fill="none" xmlns="http://www.w3.org/2000/svg">
<circle cx="71" cy="71" r="61.2809" fill="white" stroke="#F4F4FF" stroke-width="6.5618"/>
<path d="M111.053 90.4269C112.008 89.3191 112.478 87.951 112.377 86.5598C112.271 85.1043 111.549 83.7519 110.344 82.752C110.175 82.6113 109.927 82.6168 109.764 82.7648C109.715 82.8092 109.667 82.8541 109.62 82.8997C109.31 81.8735 108.681 80.9372 107.794 80.2019C107.625 80.0614 107.377 80.0668 107.214 80.2148C107.165 80.2592 107.117 80.3042 107.07 80.3497C106.76 79.3234 106.131 78.3872 105.244 77.6519C105.075 77.5114 104.827 77.5168 104.664 77.6648C104.615 77.7092 104.567 77.7542 104.52 77.7997C104.21 76.7732 103.58 75.8369 102.692 75.1018C102.523 74.9613 102.276 74.9668 102.113 75.1148C101.456 75.7108 100.966 76.4097 100.653 77.1589C99.4508 76.0722 97.817 75.5287 96.0634 75.6534C95.8437 75.6691 95.669 75.8438 95.6534 76.0635C95.5286 77.8178 96.0724 79.4515 97.1594 80.6538C96.4097 80.9666 95.7106 81.4568 95.1147 82.1143C94.9668 82.2775 94.9613 82.5245 95.1019 82.694C95.8379 83.5814 96.7739 84.2108 97.7992 84.5206C97.7538 84.5675 97.7089 84.6155 97.6647 84.6643C97.5168 84.8275 97.5113 85.0745 97.6519 85.244C98.3879 86.1314 99.3239 86.7609 100.349 87.0706C100.304 87.1175 100.259 87.1654 100.215 87.2142C100.067 87.3773 100.061 87.6244 100.202 87.794C100.938 88.6814 101.874 89.3109 102.899 89.6206C102.854 89.6675 102.809 89.7154 102.765 89.7642C102.617 89.9274 102.611 90.1744 102.752 90.3439C103.751 91.5489 105.102 92.271 106.558 92.377C106.682 92.3862 106.807 92.3907 106.931 92.3907C108.192 92.3907 109.418 91.9233 110.427 91.0529L112.079 92.7049C112.165 92.7913 112.279 92.8345 112.392 92.8345C112.505 92.8345 112.618 92.7913 112.705 92.7049C112.878 92.5321 112.878 92.2519 112.705 92.0791L111.053 90.4269ZM107.525 81.148C108.272 81.8696 108.754 82.7704 108.904 83.7314C108.144 84.7999 107.803 86.0542 107.924 87.2977L106.599 85.9731C105.885 84.3451 106.247 82.4969 107.525 81.148ZM104.975 78.5979C105.722 79.3196 106.204 80.2204 106.354 81.1814C105.594 82.25 105.253 83.5041 105.374 84.7476L104.049 83.423C103.334 81.7958 103.697 79.9475 104.975 78.5979ZM102.424 76.0478C103.172 76.7692 103.654 77.6701 103.804 78.6313C103.044 79.7 102.702 80.954 102.823 82.1971L101.499 80.8731C100.784 79.2453 101.146 77.397 102.424 76.0478ZM96.521 76.521C96.5319 76.5209 96.5429 76.5209 96.5538 76.5209C98.048 76.5209 99.4062 77.0863 100.357 78.1087C100.2 78.8624 100.212 79.6431 100.404 80.4042C99.643 80.2122 98.8626 80.2003 98.1094 80.3578C97.079 79.3997 96.5126 78.0285 96.521 76.521ZM96.0478 82.4249C97.3961 81.1472 99.2443 80.7844 100.873 81.4989L102.198 82.8233C100.954 82.7026 99.6992 83.0442 98.6308 83.804C97.6708 83.655 96.7702 83.1733 96.0478 82.4249ZM98.5978 84.9749C99.9461 83.6972 101.794 83.3344 103.423 84.0489L104.748 85.3736C103.504 85.253 102.25 85.5946 101.181 86.3541C100.221 86.2051 99.3203 85.7234 98.5978 84.9749ZM101.148 87.5249C102.497 86.2474 104.345 85.8846 105.973 86.5989L107.298 87.9235C106.054 87.8029 104.8 88.1444 103.731 88.9041C102.771 88.7551 101.87 88.2734 101.148 87.5249ZM106.622 91.4943C105.532 91.4148 104.507 90.9145 103.698 90.0751C105.047 88.7974 106.895 88.4346 108.523 89.149L109.799 90.425C108.879 91.198 107.757 91.577 106.622 91.4943ZM110.425 89.7991L109.149 88.523C108.435 86.895 108.798 85.0468 110.075 83.6979C110.915 84.5076 111.415 85.5335 111.494 86.6239C111.577 87.7583 111.198 88.8791 110.425 89.7991Z" fill="#616181"/>
<path d="M116.87 96.2444L115.512 94.8873C115.339 94.7145 115.059 94.7147 114.886 94.8876C114.713 95.0604 114.714 95.3406 114.886 95.5134L116.245 96.8705C116.331 96.9569 116.444 97 116.557 97C116.671 97 116.784 96.9567 116.871 96.8702C117.043 96.6973 117.043 96.4171 116.87 96.2444Z" fill="#616181"/>
<path d="M113.48 93.4826C113.307 93.6554 113.307 93.9356 113.48 94.1084L113.481 94.1097C113.568 94.1959 113.68 94.239 113.793 94.239C113.907 94.239 114.02 94.1956 114.107 94.109C114.279 93.9362 114.279 93.6554 114.106 93.4826C113.933 93.3098 113.653 93.3098 113.48 93.4826Z" fill="#616181"/>
<path d="M138.269 69.7274C137.936 52.1069 130.702 35.3207 118.123 22.9774C105.544 10.634 88.6236 3.7191 71 3.7191" stroke="#FFBF00" stroke-width="6.5618" stroke-linecap="round"/>
<path d="M115.743 121.247C122.831 114.935 128.504 107.195 132.388 98.535C136.273 89.8751 138.281 80.4912 138.281 71" stroke="#8F8FB2" stroke-width="6.5618" stroke-linecap="round"/>
<path d="M71.0172 3.7191C60.2054 3.71635 49.5522 6.3192 39.9598 11.3072C30.3674 16.2953 22.1184 23.5216 15.9114 32.3741C9.70434 41.2266 5.72213 51.4446 4.30201 62.1627C2.88189 72.8808 4.06569 83.7833 7.75315 93.9468C11.4406 104.11 17.5231 113.235 25.4855 120.549C33.4479 127.863 43.0557 133.151 53.4951 135.964C63.9345 138.777 74.8981 139.032 85.4573 136.709C96.0165 134.386 105.86 129.552 114.155 122.617" stroke="#007370" stroke-width="6.5618" stroke-linecap="round"/>
<path d="M71 13L71 70.8031L109 115" stroke="#E8E8E8"/>
<line x1="71" y1="70.5" x2="135" y2="70.5" stroke="#E8E8E8"/>
<path d="M61.6604 85.4369C61.1912 83.794 60.2235 81.7703 58.7843 79.4219C55.6823 74.3605 51.314 69.2811 50.049 67.8448C49.7995 67.5615 49.3673 67.5342 49.0842 67.7836C48.8008 68.0332 48.7735 68.4653 49.023 68.7486C49.3868 69.1616 50.0112 69.8806 50.7883 70.8147L49.3388 72.2644C49.0718 72.5313 49.0718 72.9642 49.3388 73.2312C49.4723 73.3647 49.6472 73.4315 49.8222 73.4315C49.9971 73.4315 50.172 73.3647 50.3055 73.2312L51.6604 71.8763C53.4692 74.1064 55.7747 77.1279 57.6185 80.1364C57.7717 80.3864 57.9181 80.6314 58.0599 80.873L56.4113 82.5217C56.1443 82.7887 56.1443 83.2216 56.4113 83.4886C56.5448 83.6222 56.7197 83.6889 56.8947 83.6889C57.0696 83.6889 57.2446 83.6222 57.3781 83.4886L58.756 82.1106C60.6492 85.6391 61.136 88.0948 60.1145 89.1164C59.7672 89.4638 59.2516 89.6347 58.5835 89.6345C56.6856 89.6343 53.559 88.2547 49.582 85.6294L51.0172 84.1941C51.2842 83.9271 51.2842 83.4943 51.0172 83.2272C50.7503 82.9603 50.3176 82.9602 50.0504 83.2272L48.428 84.8496C43.5353 81.4668 38.9224 77.3678 37.5205 75.9659C37.4812 75.9266 37.4427 75.8872 37.4044 75.8477L39.3623 73.8896C39.6293 73.6226 39.6293 73.1897 39.3623 72.9227C39.0953 72.6558 38.6626 72.6558 38.3955 72.9227L36.5119 74.8066C35.6438 73.6368 35.2064 72.4456 35.2086 71.2515C35.2116 69.6615 35.994 68.0745 37.5339 66.5345C39.8756 64.1928 42.2778 63.6132 44.6741 64.8122C45.0118 64.9811 45.4224 64.8444 45.5914 64.5067C45.7603 64.169 45.6236 63.7584 45.2859 63.5894C44.2195 63.0558 43.1336 62.8085 42.0445 62.8468C41.9098 61.1467 41.5408 59.5829 40.9862 58.387C40.2722 56.8477 39.2798 56.0001 38.1915 56C36.8625 56 35.6948 57.2719 34.9838 59.4477C32.9428 58.412 31.2177 58.3383 30.2778 59.2782C29.3381 60.218 29.4118 61.9431 30.4475 63.9843C28.2715 64.6953 26.9999 65.863 27 67.1921C27 68.2792 27.846 69.271 29.3822 69.9848C30.5781 70.5405 32.1435 70.9102 33.8453 71.0453C33.843 71.1131 33.8416 71.181 33.8415 71.2489C33.8377 73.2169 34.7503 75.1292 36.5537 76.9328C38.0948 78.474 42.9629 82.7996 48.1746 86.3334C51.0162 88.2603 53.4666 89.6087 55.4576 90.3412C56.6516 90.7805 57.6959 91 58.5858 91C59.6357 91 60.4704 90.6943 61.0814 90.0833C62.0651 89.0995 62.2598 87.5362 61.6604 85.4369ZM28.3673 67.1921C28.3673 66.537 29.3752 65.6264 31.6273 65.0685C31.838 65.0162 32.0114 64.8671 32.0945 64.6665C32.1776 64.4659 32.1604 64.2377 32.0483 64.0519C30.8504 62.0649 30.7815 60.7082 31.2447 60.2449C31.7079 59.7817 33.0646 59.8505 35.0514 61.0485C35.2373 61.1606 35.4655 61.1778 35.666 61.0947C35.8666 61.0115 36.0158 60.8382 36.068 60.6275C36.6259 58.3753 37.5364 57.3673 38.1916 57.3673C39.212 57.3673 40.4373 59.6718 40.6879 63.043C39.2682 63.4044 37.8826 64.2521 36.5671 65.5676C35.2439 66.8909 34.3985 68.2715 34.0398 69.6883C30.6708 69.4374 28.3673 68.2115 28.3673 67.1921Z" fill="#616181"/>
<path d="M44.7469 71.8165L42.91 73.6535C42.6431 73.9204 42.6431 74.3533 42.91 74.6204C43.0435 74.7539 43.2185 74.8206 43.3934 74.8206C43.5683 74.8206 43.7433 74.7539 43.8768 74.6204L45.7137 72.7834C45.9807 72.5164 45.9807 72.0835 45.7137 71.8165C45.4467 71.5495 45.0139 71.5495 44.7469 71.8165Z" fill="#616181"/>
<path d="M50.5169 78.6024L52.2979 76.8212C52.5649 76.5543 52.5649 76.1214 52.2979 75.8544C52.0309 75.5874 51.5981 75.5874 51.331 75.8544L49.5501 77.6355C49.2831 77.9025 49.2831 78.3354 49.5501 78.6024C49.6836 78.7359 49.8585 78.8027 50.0334 78.8027C50.2084 78.8027 50.3834 78.7359 50.5169 78.6024Z" fill="#616181"/>
<path d="M47.4482 66.7206C47.8256 66.7206 48.1318 66.4145 48.1318 66.037C48.1318 65.6594 47.8256 65.3533 47.4482 65.3533C47.0707 65.3533 46.7643 65.6594 46.7643 66.037C46.7643 66.4145 47.0707 66.7206 47.4482 66.7206Z" fill="#616181"/>
<path d="M109.534 40.8313C108.212 39.8077 106.345 38.9696 103.987 38.3405C99.4503 37.1306 94.3346 37 92.3458 37C87.1925 37 83 41.072 83 46.0771V49.9229C83 54.9281 87.1925 59 92.3458 59C94.722 59 96.5066 58.277 98.3959 57.5116C100.35 56.72 102.37 55.9016 105.212 55.9016C108.955 55.9016 112 52.9438 112 49.3083V45.4625C112 43.6559 111.17 42.0978 109.534 40.8313ZM109.057 50.2358C109.272 50.4571 109.63 50.4675 109.858 50.2593C110.242 49.908 110.58 49.5166 110.867 49.0951V49.3083C110.867 52.3372 108.33 54.8013 105.212 54.8013C102.143 54.8013 100.017 55.6629 97.9599 56.4961C96.1781 57.2179 94.4952 57.8998 92.3458 57.8998C87.9946 57.8998 84.4235 54.5961 84.1503 50.4359C85.7407 53.2455 88.818 55.154 92.3458 55.154C94.722 55.154 96.5066 54.431 98.3959 53.6656C100.35 52.874 102.37 52.0556 105.212 52.0556C105.423 52.0556 105.636 52.0459 105.845 52.0269C106.157 51.9985 106.386 51.7304 106.357 51.4278C106.327 51.1254 106.051 50.9032 105.74 50.9315C105.565 50.9473 105.388 50.9554 105.212 50.9554C102.143 50.9554 100.017 51.817 97.9599 52.6502C96.1781 53.372 94.4952 54.0538 92.3458 54.0538C87.8171 54.0538 84.1328 50.4755 84.1328 46.0771C84.1328 41.6787 87.8171 38.1003 92.3458 38.1003C94.2887 38.1003 99.2832 38.2271 103.687 39.4015C108.451 40.6724 110.867 42.7115 110.867 45.4625C110.867 46.964 110.216 48.4204 109.081 49.4581C108.854 49.6664 108.843 50.0146 109.057 50.2358Z" fill="#616181"/>
<path d="M108.592 50.5869C108.458 50.312 108.121 50.194 107.838 50.3234C107.834 50.3252 107.828 50.3278 107.824 50.3298C107.545 50.4656 107.431 50.7961 107.571 51.0678C107.67 51.2606 107.87 51.372 108.078 51.372C108.162 51.372 108.247 51.3538 108.328 51.3155C108.605 51.1838 108.724 50.8594 108.592 50.5869Z" fill="#616181"/>
<path d="M96.4345 39.3555L96.4053 39.3532C96.093 39.3296 95.8205 39.555 95.7956 39.8579C95.7707 40.1608 96.0034 40.4259 96.3152 40.4501L96.3441 40.4523C96.3595 40.4535 96.3747 40.4541 96.3899 40.4541C96.6822 40.4541 96.9301 40.2357 96.9539 39.9478C96.9788 39.6449 96.7463 39.3798 96.4345 39.3555Z" fill="#616181"/>
<path d="M109.381 43.9805C108.819 42.902 107.569 41.97 105.665 41.2104C104.125 40.5957 102.44 40.2075 101.298 39.9899C100.614 39.8596 99.8967 39.7432 99.1666 39.644C98.857 39.6016 98.5706 39.8117 98.5272 40.1127C98.4839 40.4136 98.6999 40.6916 99.0097 40.7337C99.7195 40.83 100.416 40.9431 101.08 41.0696C104.971 41.8107 107.628 43.0527 108.37 44.477C108.526 44.7764 108.602 45.0987 108.602 45.4624C108.602 47.2779 107.081 48.7549 105.212 48.7549C103.322 48.7549 101.486 49.0549 99.6007 49.672C98.7886 49.9379 98 50.2557 97.2375 50.5631C96.7331 50.7664 96.2115 50.9766 95.6938 51.1671C94.3874 51.6481 93.3861 51.8533 92.3458 51.8533C89.0664 51.8533 86.3984 49.262 86.3984 46.077C86.3984 42.8919 89.0664 40.3007 92.3458 40.3007C92.9855 40.3007 93.635 40.3124 94.2761 40.3356C94.3849 40.3396 94.4938 40.3438 94.6028 40.3485C94.915 40.3622 95.1798 40.1267 95.1936 39.8231C95.2074 39.5196 94.9652 39.2626 94.6527 39.2493C94.5411 39.2445 94.4296 39.2401 94.3182 39.2361C93.6632 39.2124 92.9995 39.2004 92.3457 39.2004C88.4417 39.2004 85.2655 42.2852 85.2655 46.077C85.2655 49.8687 88.4416 52.9535 92.3457 52.9535C93.5315 52.9535 94.6528 52.7269 96.0952 52.196C96.6294 51.9994 97.1592 51.7858 97.6717 51.5792C98.4167 51.279 99.187 50.9684 99.9624 50.7146C101.73 50.1362 103.447 49.8551 105.212 49.8551C107.705 49.8552 109.734 47.8846 109.734 45.4625C109.734 44.9221 109.619 44.4374 109.381 43.9805Z" fill="#616181"/>
<path d="M92.8882 41.3887C91.3048 41.3887 90.0165 42.5233 90.0165 43.918C90.0165 45.3126 91.3048 46.4472 92.8882 46.4472C94.4717 46.4472 95.76 45.3126 95.76 43.918C95.76 42.5233 94.4717 41.3887 92.8882 41.3887ZM92.8882 45.3469C91.9293 45.3469 91.1493 44.7059 91.1493 43.9179C91.1493 43.13 91.9293 42.4889 92.8882 42.4889C93.8471 42.4889 94.6271 43.1299 94.6271 43.9179C94.6271 44.7059 93.8471 45.3469 92.8882 45.3469Z" fill="#616181"/>
</svg>
