<svg width="181" height="184" viewBox="0 0 181 184" fill="none" xmlns="http://www.w3.org/2000/svg">
<path fill-rule="evenodd" clip-rule="evenodd" d="M92.8174 1.41924C109.821 4.09577 122.465 16.3692 136.872 25.7474C152.234 35.7471 173.922 40.6588 179.725 57.9903C185.532 75.3288 169.904 91.8169 164.884 109.397C159.583 127.96 163.023 149.914 149.522 163.766C135.243 178.415 113.083 186.453 92.8174 183.332C73.4117 180.344 63.0145 160.141 47.575 148.066C32.9583 136.634 12.6444 131.336 4.85571 114.537C-3.28481 96.9788 0.0537244 76.4267 5.7955 57.9535C11.6033 39.2679 20.866 20.7693 37.3231 10.0778C53.3955 -0.363738 73.8593 -1.56487 92.8174 1.41924Z" fill="#ECF2DE"/>
<path d="M160.628 108.937H23.3713C22.065 108.937 21.0047 109.995 21.0047 111.303C21.0047 138.705 43.2973 161 70.7013 161H113.298C140.7 161 162.995 138.705 162.995 111.303C162.995 109.995 161.937 108.937 160.628 108.937ZM113.298 156.267H70.7013C46.7025 156.267 27.0344 137.368 25.7991 113.67H158.2C156.965 137.368 137.297 156.267 113.298 156.267Z" fill="#616181"/>
<path d="M141.706 52.155C141.706 51.9823 141.704 51.8095 141.687 51.5468C141.323 47.6233 138.625 44.4 135.063 43.1908L137.742 40.5119C142.388 35.9612 142.854 28.6818 138.788 23.5418C134.434 18.2504 126.586 17.4977 121.297 21.8497C120.997 22.0982 120.706 22.3609 120.414 22.6521L117.504 25.6055C116.283 22.0627 113.052 19.3839 109.072 19.0147C103.83 18.7285 99.393 22.7514 99.1115 27.9624C99.1021 28.1352 99.0995 28.308 99.0995 28.4782V32.1062C97.7081 31.2991 96.0965 30.8354 94.3761 30.8329C94.2058 30.8329 94.0305 30.8376 93.7679 30.8518C88.7083 31.3227 84.8155 35.67 84.9007 40.7105V43.929C83.4807 43.1078 81.8621 42.6677 80.1773 42.6652C80.007 42.6652 79.8342 42.6699 79.5715 42.684C74.5095 43.155 70.6167 47.5023 70.7018 52.543V87.6383C70.7018 88.9471 71.7621 90.0049 73.0684 90.0049H113.299C118.519 90.0049 122.765 85.7593 122.762 80.5436C122.762 78.8208 122.301 77.2044 121.492 75.8108H124.689C129.772 75.9503 134.119 72.0006 134.595 66.8487C134.697 64.9223 134.214 63.1001 133.301 61.5525C135.426 61.316 137.392 60.3763 138.926 58.8476C140.714 57.0632 141.704 54.6872 141.706 52.155ZM135.584 55.4965C134.689 56.3862 133.504 56.8763 132.238 56.8763C132.235 56.8763 132.233 56.8763 132.23 56.8763H125.131C123.822 56.8763 122.764 57.9365 122.764 59.2428C122.764 60.5491 123.822 61.6094 125.131 61.6094L125.391 61.6166C127.999 61.7561 130.006 63.9901 129.874 66.5034C129.632 69.1112 127.42 71.13 124.729 71.0754H113.299C111.99 71.0754 110.932 72.1357 110.932 73.442C110.932 74.7483 111.99 75.8085 113.299 75.8085C115.909 75.8085 118.032 77.9313 118.032 80.5417C118.032 83.152 115.909 85.2748 113.299 85.2748H75.4344V52.5028C75.3895 49.883 77.4011 47.6421 79.9166 47.4053L80.1745 47.398C82.7801 47.4003 84.8979 49.5208 84.9004 52.124V52.1406C84.9004 53.4469 85.9582 54.5072 87.2645 54.5072C87.267 54.5072 87.267 54.5072 87.267 54.5072C88.5733 54.5072 89.6311 53.4494 89.6336 52.1431V40.6703C89.5886 38.0505 91.6002 35.8095 94.1157 35.5727L94.3714 35.5655C96.9793 35.5702 99.0973 37.6905 99.0998 40.2961V40.3103C99.0998 41.6166 100.158 42.6768 101.464 42.6768C101.466 42.6768 101.466 42.6768 101.466 42.6768C102.773 42.6768 103.83 41.619 103.833 40.3128V28.478L103.84 28.2153C103.977 25.6097 106.159 23.6031 108.725 23.7332C111.337 23.977 113.346 26.2179 113.297 28.8826V30.8468C113.297 31.8053 113.877 32.6714 114.766 33.0358C115.649 33.4003 116.676 33.192 117.348 32.5058L123.768 25.9908C123.943 25.818 124.123 25.6546 124.31 25.501C127.585 22.808 132.439 23.2764 135.109 26.5138C137.636 29.7133 137.345 34.2758 134.415 37.1466L128.191 43.3705C127.515 44.0472 127.311 45.0648 127.678 45.95C128.042 46.8328 128.908 47.4103 129.864 47.4103H131.829C131.878 47.4103 131.914 47.4103 131.954 47.4103C134.538 47.4103 136.734 49.403 136.966 51.8924L136.973 52.1528C136.97 53.4164 136.478 54.6043 135.584 55.4965Z" fill="#616181"/>
<path d="M123.46 33.897L57.1989 100.158L60.5455 103.505L126.806 37.2436L123.46 33.897Z" fill="#616181"/>
<path d="M113.294 37.9559H108.561V49.7885H113.294V37.9559Z" fill="#616181"/>
<path d="M99.0948 49.7885H94.3617V63.9876H99.0948V49.7885Z" fill="#616181"/>
<path d="M84.8957 61.5972H80.1626V78.1626H84.8957V61.5972Z" fill="#616181"/>
<path d="M122.76 47.4219H110.927V52.1547H122.76V47.4219Z" fill="#616181"/>
<path d="M110.927 61.5972H96.7283V66.33H110.927V61.5972Z" fill="#616181"/>
<path d="M99.0946 75.7963H82.5291V80.5294H99.0946V75.7963Z" fill="#616181"/>
<path d="M65.1755 29.9476C65.1733 29.9429 65.1683 29.9382 65.1661 29.9335C61.8268 24.933 55.0397 23.5745 50.0417 26.9137C49.8856 27.0155 49.7316 27.1242 49.5566 27.2546L48.7046 27.903L47.8859 27.3137C43.5552 23.2742 36.7467 23.4375 32.6243 27.7161C30.6058 29.8081 29.5219 32.5627 29.5763 35.4712C29.6306 38.3797 30.8116 41.0915 32.9013 43.1078C33.5095 43.6947 34.1863 44.2105 34.9151 44.6413L36.9078 46.1985V47.4102C36.9078 53.9347 42.2159 59.2428 48.7404 59.2428C55.2649 59.2428 60.573 53.9323 60.5705 47.408V46.1963L62.665 44.5611C67.1965 41.1223 68.297 34.7021 65.1755 29.9476ZM59.7776 40.8122L56.7484 43.1788C56.1757 43.6262 55.8396 44.3148 55.8396 45.0437V47.4102C55.8396 51.3244 52.6543 54.5097 48.7401 54.5097C44.826 54.5097 41.6407 51.3244 41.6407 47.4102V45.0437C41.6407 44.3148 41.3071 43.6262 40.7318 43.1788L37.7027 40.8122C37.6128 40.7412 37.5158 40.6775 37.4165 40.6206C36.9716 40.3674 36.5598 40.0598 36.1906 39.7023C35.0075 38.5616 34.3399 37.0282 34.3091 35.3857C34.2783 33.7433 34.8913 32.1863 36.032 31.0029C37.2365 29.7535 38.8481 29.1239 40.462 29.1239C42.0001 29.1239 43.5408 29.6941 44.7336 30.8467C44.8141 30.9225 44.8992 30.996 44.9916 31.062L47.3581 32.766C48.2007 33.3742 49.3436 33.36 50.1721 32.7305L52.6665 30.854C54.0391 29.9357 55.6837 29.614 57.3025 29.9335C58.9164 30.2552 60.3103 31.1854 61.2261 32.5532C62.982 35.2368 62.3571 38.8528 59.7776 40.8122Z" fill="#616181"/>
<path d="M77.7963 21.3666H73.0631V26.0995H77.7963V21.3666Z" fill="#616181"/>
<path d="M91.9951 97.0949H87.2623V101.828H91.9951V97.0949Z" fill="#616181"/>
<path d="M148.796 33.2111V37.9442C151.406 37.9442 153.529 40.067 153.529 42.6771C153.529 45.2872 151.406 47.4102 148.796 47.4102V52.1431C154.017 52.1431 158.262 47.8975 158.262 42.6771C158.262 37.4567 154.017 33.2111 148.796 33.2111Z" fill="#616181"/>
<path d="M30.466 54.5213H25.7331V59.2545H30.466V54.5213Z" fill="#616181"/>
<path d="M25.7376 45.0553H21.0047V49.7885H25.7376V45.0553Z" fill="#616181"/>
<path d="M113.298 94.7378C108.078 94.7378 103.832 98.9833 103.832 104.204H108.566C108.566 101.593 110.688 99.4706 113.298 99.4706C115.909 99.4706 118.032 101.593 118.032 104.204H122.764C122.764 98.9833 118.519 94.7378 113.298 94.7378Z" fill="#616181"/>
<path d="M49.403 73.4392H49.1048C48.0493 69.3617 44.3409 66.3398 39.937 66.3398C35.533 66.3398 31.8222 69.3617 30.7691 73.4392H30.471C25.2505 73.4392 21.005 77.6848 21.005 82.9052C21.005 88.1256 25.2505 92.3712 30.471 92.3712H49.403C54.6234 92.3712 58.869 88.1256 58.869 82.9052C58.869 77.6848 54.6234 73.4392 49.403 73.4392ZM49.403 87.6405H30.4707C27.8603 87.6405 25.7376 85.5177 25.7376 82.9077C25.7376 80.2973 27.8603 78.1745 30.4707 78.1745H32.8373C34.1436 78.1745 35.2038 77.1143 35.2038 75.808C35.2038 73.1976 37.3266 71.0751 39.937 71.0751C42.5473 71.0751 44.6701 73.1979 44.6701 75.808C44.6701 77.1143 45.7304 78.1745 47.0367 78.1745H49.4033C52.0136 78.1745 54.1364 80.2973 54.1364 82.9077C54.1358 85.518 52.0131 87.6405 49.403 87.6405Z" fill="#616181"/>
<path d="M44.6698 87.6383H35.2038C33.8975 87.6383 32.8373 88.6986 32.8373 90.0049V99.4709C32.8373 100.78 33.8975 101.837 35.2038 101.837H44.6698C45.9761 101.837 47.0364 100.78 47.0364 99.4709V90.0049C47.0364 88.6986 45.9761 87.6383 44.6698 87.6383ZM42.3033 97.1043H37.5704V92.3715H42.3035L42.3033 97.1043Z" fill="#616181"/>
<path d="M146.43 80.5389C142.515 80.5389 139.33 83.7242 139.33 87.6383C139.33 91.5525 142.515 94.7378 146.43 94.7378C150.344 94.7378 153.529 91.5525 153.529 87.6383C153.529 83.7242 150.344 80.5389 146.43 80.5389ZM146.43 90.0071C145.123 90.0071 144.063 88.9446 144.063 87.6405C144.063 86.3365 145.123 85.274 146.43 85.274C147.736 85.274 148.796 86.3342 148.796 87.6405C148.796 88.9471 147.736 90.0071 146.43 90.0071Z" fill="#616181"/>
<path d="M146.43 71.0729C137.297 71.0729 129.864 78.5037 129.864 87.6383C129.864 96.7729 137.297 104.204 146.43 104.204C155.562 104.204 162.995 96.7729 162.995 87.6383C162.995 78.5037 155.562 71.0729 146.43 71.0729ZM146.43 99.4731C139.905 99.4731 134.597 94.1628 134.597 87.6405C134.597 81.116 139.905 75.808 146.43 75.808C152.954 75.808 158.262 81.116 158.262 87.6405C158.262 94.165 152.954 99.4731 146.43 99.4731Z" fill="#616181"/>
</svg>
