<svg width="180" height="32" viewBox="0 0 180 32" fill="none" xmlns="http://www.w3.org/2000/svg">
<path d="M21.225 11.3408H20.3593C18.7573 2.41649 17.6731 1.49423 14.9438 1.49423H13.7733V27.3394C13.7733 29.9776 14.1644 30.4593 15.5479 30.8561V31.3843H5.67439V30.8561C7.10378 30.4593 7.45168 29.9776 7.45168 27.3394V1.49423H6.23805C3.55189 1.49423 2.47041 2.41649 0.865722 11.3408H0L1.12733 0.615751H20.1435L21.225 11.3408Z" fill="#190933"/>
<path d="M42.3206 26.4172C42.3206 29.0553 42.6658 29.4932 44.0952 29.9338V30.462H41.7138C39.4618 30.462 37.903 30.5496 36.5599 31.9562H36.1257V27.8238C34.7826 29.9338 32.6601 31.9562 29.6287 31.9562C26.12 31.9562 23.9112 29.8024 23.9112 25.0981V14.373C23.9112 11.7349 23.5201 11.297 22.1366 10.8564V10.3282H24.518C26.77 10.3282 28.3288 10.2407 29.6719 8.834H30.1061V25.4046C30.1061 28.4368 30.6697 29.7559 32.0991 29.7559C33.3128 29.7559 34.699 28.7899 36.1284 26.5485V14.373C36.1284 11.7349 35.7373 11.297 34.3511 10.8564V10.3282H36.6893C38.9845 10.3282 40.5433 10.2407 41.8864 8.834H42.3206V26.4172Z" fill="#190933"/>
<path d="M44.4431 9.40597C49.6401 9.09946 51.7626 6.85538 52.8468 2.94466H53.281V9.40597H57.2671V10.2844C54.1036 10.2844 53.281 11.1629 53.281 13.4043V24.964C53.281 27.4681 53.4536 28.612 54.4515 28.612C55.3604 28.612 56.1398 26.9864 56.9192 23.1605L57.7418 23.4232C56.6576 28.5655 55.533 31.9507 51.6763 31.9507C48.3402 31.9507 47.0861 29.4467 47.0861 25.005V13.4015C47.0861 11.1602 46.695 10.2817 44.4431 10.2817V9.40597Z" fill="#190933"/>
<path d="M76.7148 23.3411C75.2423 29.7149 72.4698 31.9562 68.4406 31.9562C62.8094 31.9562 59.4301 27.7363 59.4301 20.703C59.4301 13.2756 63.8477 8.834 69.0474 8.834C73.465 8.834 76.0649 11.5597 76.0649 17.7556H66.4475V18.4151C66.4475 23.9542 67.4886 29.4905 71.0405 29.4905C72.6424 29.4905 74.5923 28.259 75.8491 23.1167L76.7148 23.3411ZM66.4475 16.8798H71.1268C71.1268 11.3846 70.5199 9.71521 69.0906 9.71521C67.4023 9.71521 66.5797 11.5597 66.4475 16.8798Z" fill="#190933"/>
<path d="M97.7673 27.3394C97.7673 29.9776 98.1152 30.4592 99.5418 30.8561V31.3842H89.7951V30.8561C91.1813 30.4592 91.5697 29.9776 91.5697 27.3394V15.3829C91.5697 12.3506 91.006 11.0316 89.5766 11.0316C88.363 11.0316 86.9767 11.9976 85.5474 14.2389V27.3394C85.5474 29.9776 85.9384 30.4592 87.322 30.8561V31.3842H77.5752V30.8561C78.9614 30.4592 79.3498 29.9776 79.3498 27.3394V14.373C79.3498 11.7349 78.9587 11.297 77.5752 10.8564V10.3282H79.9566C82.2085 10.3282 83.7674 10.2407 85.1104 8.834H85.5447V12.9664C86.8446 10.8564 89.0102 8.834 92.0416 8.834C95.5504 8.834 97.7592 10.9878 97.7592 15.6894V27.3394H97.7673Z" fill="#190933"/>
<path d="M117.951 23.3411C116.479 29.7149 113.706 31.9562 109.677 31.9562C104.046 31.9562 100.666 27.7363 100.666 20.703C100.666 13.2756 105.084 8.834 110.284 8.834C114.701 8.834 117.301 11.5597 117.301 17.7556H107.684V18.4151C107.684 23.9542 108.722 29.4905 112.274 29.4905C113.876 29.4905 115.826 28.259 117.083 23.1167L117.951 23.3411ZM107.687 16.8798H112.366C112.366 11.3846 111.759 9.71521 110.33 9.71521C108.639 9.71521 107.816 11.5597 107.687 16.8798Z" fill="#190933"/>
<path d="M138.572 26.461C138.572 29.0991 138.963 29.5808 140.347 29.9776V30.5058H138.008C135.713 30.5058 134.155 30.6371 132.811 32H132.377V28.924C130.862 30.7247 128.998 31.9562 126.312 31.9562C123.062 31.9562 119.51 29.4959 119.51 21.4939C119.51 13.3632 123.626 8.834 128.086 8.834C130.079 8.834 131.379 9.53733 132.375 10.9878V5.53904C132.375 2.90088 132.027 2.41922 130.6 2.02241V1.49423H132.981C135.233 1.49423 136.792 1.36287 138.135 0H138.569V26.461H138.572ZM132.377 17.8021C132.377 12.0003 130.905 10.1093 129.432 10.1093C127.31 10.1093 126.53 13.0102 126.53 20.131C126.53 27.7363 127.31 29.7997 129.13 29.7997C130.039 29.7997 130.905 29.3153 132.38 27.9524V17.8021H132.377Z" fill="#190933"/>
<path d="M141.56 20.3937C141.56 12.3506 145.762 8.834 151.609 8.834C157.456 8.834 161.615 12.3068 161.615 20.3937C161.615 28.4806 157.499 31.9535 151.609 31.9535C145.762 31.9562 141.56 28.4396 141.56 20.3937ZM154.686 20.3937C154.686 12.7885 154.209 9.71248 151.612 9.71248C148.969 9.71248 148.537 12.8323 148.537 20.3937C148.537 27.999 148.972 31.075 151.612 31.075C154.252 31.075 154.686 27.999 154.686 20.3937Z" fill="#190933"/>
<path d="M179.115 10.6813C178.552 14.1979 177.338 16.2203 175.65 16.2203C173.7 16.2203 173.743 13.9352 173.355 12.3096C173.268 11.5625 172.791 11.9593 170.841 14.2444V27.3394C170.841 29.9776 171.534 30.4592 174.22 30.8561V31.3842H162.872V30.8561C164.258 30.4592 164.646 29.9776 164.646 27.3394V14.373C164.646 11.7349 164.255 11.297 162.872 10.8564V10.3282H165.253C167.505 10.3282 169.064 10.2407 170.407 8.834H170.841V13.0977C172.834 10.2407 174.048 8.834 175.388 8.834C176.775 8.834 176.731 10.6813 177.64 10.6813C177.899 10.6813 178.247 10.5061 178.811 9.97793L179.115 10.6813Z" fill="#190933"/>
</svg>
