<svg width="257" height="220" viewBox="0 0 257 220" fill="none" xmlns="http://www.w3.org/2000/svg">
<path fill-rule="evenodd" clip-rule="evenodd" d="M204.687 130.799C199.69 146.633 198.126 165.041 185.055 175.249C171.952 185.483 153.626 181.104 137.213 183.498C117.81 186.327 98.595 197.43 80.266 190.533C60.1249 182.953 39.6392 166.798 36.1921 145.482C32.761 124.265 54.9868 108.508 63.8283 88.8868C71.0294 72.9062 70.6668 53.6762 83.1143 41.3527C96.4334 28.1664 114.825 20.2498 133.503 19.9063C152.101 19.5642 169.523 28.1441 184.25 39.4924C198.397 50.3938 210.495 64.7707 214.408 82.2489C218.098 98.7358 209.78 114.663 204.687 130.799Z" fill="#ECF2DE"/>
<path d="M30.4543 93.129H29.2121C26.9135 80.3242 25.3579 79.0009 21.4418 79.0009H19.7624V116.084C19.7624 119.87 20.3235 120.561 22.3086 121.13V121.888H8.14178V121.13C10.1927 120.561 10.6919 119.87 10.6919 116.084V79.0009H8.95054C5.09635 79.0009 3.54461 80.3242 1.24216 93.129H0L1.61752 77.7404H28.9025L30.4543 93.129Z" fill="#190933"/>
<path d="M60.7228 114.761C60.7228 118.546 61.2181 119.175 63.269 119.807V120.565H59.8521C56.6209 120.565 54.3843 120.69 52.4572 122.709H51.8342V116.779C49.9071 119.807 46.8617 122.709 42.5121 122.709C37.4777 122.709 34.3085 119.618 34.3085 112.868V97.4798C34.3085 93.6945 33.7474 93.0662 31.7622 92.434V91.6762H35.1791C38.4103 91.6762 40.647 91.5505 42.5741 89.5322H43.1971V113.308C43.1971 117.659 44.0058 119.552 46.0568 119.552C47.7981 119.552 49.7871 118.165 51.838 114.95V97.4798C51.838 93.6945 51.2769 93.0662 49.2879 92.434V91.6762H52.6429C55.936 91.6762 58.1727 91.5505 60.0998 89.5322H60.7228V114.761Z" fill="#190933"/>
<path d="M63.7682 90.3529C71.2251 89.9131 74.2705 86.6932 75.8261 81.082H76.4491V90.3529H82.1685V91.6133C77.6294 91.6133 76.4491 92.8738 76.4491 96.0897V112.676C76.4491 116.269 76.6968 117.91 78.1285 117.91C79.4326 117.91 80.551 115.578 81.6693 110.088L82.8495 110.465C81.2939 117.843 79.6803 122.701 74.1467 122.701C69.3599 122.701 67.5605 119.108 67.5605 112.735V96.0858C67.5605 92.8699 66.9994 91.6094 63.7682 91.6094V90.3529Z" fill="#190933"/>
<path d="M110.073 110.347C107.96 119.493 103.982 122.709 98.2005 122.709C90.1207 122.709 85.272 116.654 85.272 106.562C85.272 95.9052 91.6105 89.5322 99.0712 89.5322C105.41 89.5322 109.14 93.4432 109.14 102.333H95.3408V103.279C95.3408 111.227 96.8345 119.171 101.931 119.171C104.229 119.171 107.027 117.404 108.83 110.025L110.073 110.347ZM95.3408 101.077H102.055C102.055 93.1919 101.184 90.7966 99.1331 90.7966C96.7107 90.7966 95.5304 93.4432 95.3408 101.077Z" fill="#190933"/>
<path d="M140.279 116.084C140.279 119.87 140.778 120.561 142.826 121.13V121.888H128.841V121.13C130.83 120.561 131.387 119.87 131.387 116.084V98.9287C131.387 94.578 130.578 92.6853 128.527 92.6853C126.786 92.6853 124.797 94.0714 122.746 97.2874V116.084C122.746 119.87 123.307 120.561 125.292 121.13V121.888H111.307V121.13C113.296 120.561 113.853 119.87 113.853 116.084V97.4798C113.853 93.6945 113.292 93.0662 111.307 92.434V91.6762H114.724C117.955 91.6762 120.192 91.5505 122.119 89.5322H122.742V95.4615C124.607 92.434 127.714 89.5322 132.064 89.5322C137.098 89.5322 140.268 92.6225 140.268 99.3685V116.084H140.279Z" fill="#190933"/>
<path d="M169.24 110.347C167.127 119.493 163.149 122.709 157.368 122.709C149.288 122.709 144.439 116.654 144.439 106.562C144.439 95.9052 150.778 89.5322 158.238 89.5322C164.577 89.5322 168.307 93.4432 168.307 102.333H154.508V103.279C154.508 111.227 155.998 119.171 161.094 119.171C163.393 119.171 166.191 117.404 167.994 110.025L169.24 110.347ZM154.512 101.077H161.226C161.226 93.1919 160.355 90.7966 158.304 90.7966C155.878 90.7966 154.698 93.4432 154.512 101.077Z" fill="#190933"/>
<path d="M198.827 114.824C198.827 118.609 199.388 119.3 201.374 119.87V120.627H198.019C194.725 120.627 192.489 120.816 190.562 122.771H189.939V118.358C187.764 120.942 185.09 122.709 181.236 122.709C176.573 122.709 171.477 119.179 171.477 107.697C171.477 96.0309 177.382 89.5322 183.782 89.5322C186.642 89.5322 188.507 90.5414 189.935 92.6225V84.8045C189.935 81.0192 189.436 80.3281 187.389 79.7587V79.0009H190.805C194.037 79.0009 196.273 78.8124 198.2 76.8569H198.823V114.824H198.827ZM189.939 102.4C189.939 94.0754 187.826 91.362 185.713 91.362C182.668 91.362 181.549 95.5243 181.549 105.741C181.549 116.654 182.668 119.614 185.28 119.614C186.584 119.614 187.826 118.919 189.943 116.964V102.4H189.939Z" fill="#190933"/>
<path d="M203.115 106.118C203.115 94.578 209.144 89.5322 217.533 89.5322C225.923 89.5322 231.89 94.5152 231.89 106.118C231.89 117.722 225.985 122.705 217.533 122.705C209.144 122.709 203.115 117.663 203.115 106.118ZM221.949 106.118C221.949 95.2062 221.264 90.7927 217.537 90.7927C213.745 90.7927 213.126 95.2691 213.126 106.118C213.126 117.031 213.749 121.444 217.537 121.444C221.326 121.444 221.949 117.031 221.949 106.118Z" fill="#190933"/>
<path d="M257 92.1827C256.191 97.2285 254.45 100.13 252.027 100.13C249.23 100.13 249.292 96.8515 248.734 94.5191C248.611 93.4471 247.926 94.0165 245.128 97.2952V116.084C245.128 119.87 246.122 120.561 249.977 121.13V121.888H233.693V121.13C235.682 120.561 236.239 119.87 236.239 116.084V97.4798C236.239 93.6945 235.678 93.0662 233.693 92.434V91.6762H237.11C240.341 91.6762 242.578 91.5505 244.505 89.5322H245.128V95.65C247.988 91.5505 249.729 89.5322 251.652 89.5322C253.641 89.5322 253.579 92.1827 254.883 92.1827C255.255 92.1827 255.754 91.9314 256.563 91.1736L257 92.1827Z" fill="#190933"/>
</svg>
