<svg width="32" height="32" viewBox="0 0 32 32" fill="none" xmlns="http://www.w3.org/2000/svg">
<path d="M16 6C14.6261 6 13.3302 6.26182 12.1124 6.78546C10.8946 7.30911 9.83295 8.02422 8.9274 8.93083C8.02185 9.83744 7.30757 10.8964 6.78454 12.1079C6.26151 13.3193 6 14.6127 6 15.9883C6 17.3795 6.26151 18.6807 6.78454 19.8921C7.30757 21.1036 8.02185 22.1626 8.9274 23.0692C9.83295 23.9758 10.8946 24.6909 12.1124 25.2145C13.3302 25.7382 14.6261 26 16 26C17.3739 26 18.6698 25.7382 19.8876 25.2145C21.1054 24.6909 22.1671 23.9758 23.0726 23.0692C23.9781 22.1626 24.6924 21.1036 25.2155 19.8921C25.7385 18.6807 26 17.3795 26 15.9883C26 14.6127 25.7385 13.3193 25.2155 12.1079C24.6924 10.8964 23.9781 9.83744 23.0726 8.93083C22.1671 8.02422 21.1054 7.30911 19.8876 6.78546C18.6698 6.26182 17.3739 6 16 6ZM22.0187 21.2638C21.363 20.279 20.5121 19.4896 19.466 18.8957C18.42 18.3017 17.2646 18.0047 16 18.0047C14.7354 18.0047 13.58 18.3017 12.534 18.8957C11.4879 19.4896 10.6448 20.279 10.0047 21.2638C9.38017 20.5604 8.89227 19.7593 8.54098 18.8605C8.18969 17.9617 8.01405 17.0043 8.01405 15.9883C8.01405 14.8941 8.22092 13.8585 8.63466 12.8816C9.0484 11.9046 9.61826 11.0567 10.3443 10.3376C11.0703 9.6186 11.9172 9.04807 12.8852 8.62603C13.8532 8.20398 14.8915 7.99297 16 7.99297C17.1085 7.99297 18.1468 8.20398 19.1148 8.62603C20.0828 9.04807 20.9297 9.6186 21.6557 10.3376C22.3817 11.0567 22.9516 11.9046 23.3653 12.8816C23.7791 13.8585 23.9859 14.8941 23.9859 15.9883C23.9859 17.0043 23.8103 17.9617 23.459 18.8605C23.1077 19.7593 22.6276 20.5604 22.0187 21.2638ZM18.9742 13.9953C18.9742 13.1669 18.6815 12.4596 18.096 11.8734C17.5105 11.2872 16.8041 10.9941 15.9766 10.9941C15.1491 10.9941 14.4426 11.2872 13.8571 11.8734C13.2717 12.4596 12.9789 13.1669 12.9789 13.9953C12.9789 14.8238 13.2717 15.5311 13.8571 16.1172C14.4426 16.7034 15.1491 16.9965 15.9766 16.9965C16.8041 16.9965 17.5105 16.7034 18.096 16.1172C18.6815 15.5311 18.9742 14.8238 18.9742 13.9953Z" fill="#8F8FB2"/>
</svg>
