<svg width="32" height="32" viewBox="0 0 32 32" fill="none" xmlns="http://www.w3.org/2000/svg">
<path d="M14.8583 6C16.4593 6 17.9488 6.40026 19.3268 7.20079C20.6654 7.98819 21.7283 9.05117 22.5157 10.3898C23.3163 11.7677 23.7165 13.2572 23.7165 14.8583C23.7165 16.4593 23.3163 17.9488 22.5157 19.3268C21.7283 20.6654 20.6654 21.7283 19.3268 22.5157C17.9488 23.3163 16.4593 23.7165 14.8583 23.7165C13.2572 23.7165 11.7677 23.3163 10.3898 22.5157C9.05117 21.7283 7.98819 20.6654 7.20079 19.3268C6.40026 17.9488 6 16.4593 6 14.8583C6 13.2572 6.40026 11.7677 7.20079 10.3898C7.98819 9.05117 9.05117 7.98819 10.3898 7.20079C11.7677 6.40026 13.2572 6 14.8583 6ZM14.8583 21.748C16.105 21.748 17.2664 21.4331 18.3425 20.8031C19.3793 20.1995 20.1995 19.3793 20.8031 18.3425C21.4331 17.2664 21.748 16.105 21.748 14.8583C21.748 13.6115 21.4331 12.4501 20.8031 11.374C20.1995 10.3373 19.3793 9.51706 18.3425 8.91339C17.2664 8.28346 16.105 7.9685 14.8583 7.9685C13.6115 7.9685 12.4501 8.28346 11.374 8.91339C10.3373 9.51706 9.51706 10.3373 8.91339 11.374C8.28346 12.4501 7.9685 13.6115 7.9685 14.8583C7.9685 16.105 8.28346 17.2664 8.91339 18.3425C9.51706 19.3793 10.3373 20.1995 11.374 20.8031C12.4501 21.4331 13.6115 21.748 14.8583 21.748ZM23.2047 21.8268L26 24.6024L24.6024 26L21.8268 23.2047L23.2047 21.8268Z" fill="#8F8FB2"/>
</svg>
