<svg width="32" height="32" viewBox="0 0 32 32" fill="none" xmlns="http://www.w3.org/2000/svg">
<path d="M16 25L14.5446 23.711C12.8858 22.2378 11.6808 21.1483 10.9296 20.4425C10.1784 19.7366 9.34116 18.8619 8.41784 17.8184C7.49452 16.7749 6.86072 15.8312 6.51643 14.9872C6.17214 14.1432 6 13.2762 6 12.3862C6 10.8823 6.52425 9.6087 7.57277 8.56522C8.62129 7.52173 9.928 7 11.493 7C13.3083 7 14.8106 7.69053 16 9.07161C17.1894 7.69053 18.6917 7 20.507 7C22.072 7 23.3787 7.52173 24.4272 8.56522C25.4757 9.6087 26 10.8823 26 12.3862C26 13.5831 25.5931 14.8261 24.7793 16.1151C23.9656 17.4041 23.0814 18.5243 22.1268 19.4757C21.1721 20.4271 19.615 21.8542 17.4554 23.757L16 25Z" fill="#8F8FB2"/>
</svg>
